<?xml version="1.0" encoding="UTF-8" standalone="no"?>
<svg width="321px" height="114px" viewBox="0 0 321 114" version="1.1" xmlns="http://www.w3.org/2000/svg" xmlns:xlink="http://www.w3.org/1999/xlink" xmlns:sketch="http://www.bohemiancoding.com/sketch/ns">
    <title>weblogo</title>
    <description>Created with Sketch (http://www.bohemiancoding.com/sketch)</description>
    <defs></defs>
    <g id="Page-1" stroke="none" stroke-width="1" fill="none" fill-rule="evenodd" sketch:type="MSPage">
        <g id="trimme" sketch:type="MSLayerGroup">
            <g id="Group" sketch:type="MSShapeGroup">
                <path d="M112.178442,28.762 C110.840623,26.106 108.551776,24.132 105.734579,23.202 C104.678879,22.854 103.617196,22.678 102.577445,22.678 C99.4671651,22.678 96.6928349,24.232 94.7618692,26.896 C93.3004361,26.57 91.8001246,26.394 90.2838629,26.394 C87.5075389,26.394 84.877757,26.984 82.5300935,28.117 C81.0497196,25.941 78.5475389,22.896 74.8490966,20.255 L75.6485981,19.277 C76.808972,20.013 78.4049844,20.589 80.5781931,20.675 C80.674891,20.678 80.7705919,20.681 80.865296,20.681 C83.7752025,20.681 85.8666667,18.896 86.4847352,15.859 C87.5214953,10.775 84.1201246,3.368 77.5805607,0.87 C75.3884112,0.033 73.2490966,0.179 71.3928972,1.294 C68.9694704,2.752 67.0175701,5.819 65.5900312,10.412 C64.9380685,12.51 64.5542679,14.43 64.3568847,15.574 C61.8477259,15.041 58.9946417,14.749 56.0239252,14.749 C48.4416199,14.749 40.6071028,16.555 33.9678505,19.832 C32.5901558,20.512 31.2702804,21.254 29.9992523,22.048 C28.731215,18.298 26.5310903,13.901 22.9054206,12.17 C16.1963863,8.965 8.07875389,11.974 3.16311526,19.486 C0.226292835,23.977 -0.739688474,29.098 0.703800623,32.536 C1.6,34.674 3.33657321,36.051 5.71613707,36.516 C9.7046729,37.297 13.0621807,33.899 15.7597508,31.17 C16.7656075,30.152 18.2629283,28.637 18.9049221,28.458 C19.3963863,28.899 19.8439875,29.596 20.2417445,30.415 C18.1143925,32.904 16.2581931,35.658 14.6890966,38.677 C14.6661682,38.723 14.6432399,38.769 14.6233022,38.816 C9.08161994,50.945 10.6038629,65.735 18.6955763,78.384 C22.8685358,84.905 28.514891,90.411 35.0245483,94.31 C41.9818069,98.474 49.7824299,100.674 57.5800623,100.674 C70.7419315,100.674 83.7353271,94.522 95.1586293,82.881 C103.045981,74.841 108.283614,66.864 110.720997,59.168 C112.80947,52.585 112.785545,46.234 110.670156,40.748 C111.626168,39.748 112.386791,38.585 112.819439,37.263 C113.743551,34.438 113.515265,31.419 112.178442,28.762 L112.178442,28.762 Z M72.9450467,3.893 C74.0077259,3.255 75.1710903,3.192 76.5039252,3.701 C81.8930841,5.761 84.2238006,11.818 83.5249844,15.255 C83.018567,17.741 81.271028,17.673 80.6958255,17.65 C78.5565109,17.565 77.0063551,16.886 76.0872274,15.629 C75.070405,14.242 75.1152648,12.566 75.1152648,12.559 C75.1551402,11.725 74.5121495,11.015 73.6797508,10.974 C72.8403738,10.94 72.1405607,11.58 72.0996885,12.414 C72.0847352,12.68 72.0269159,14.994 73.4723988,17.158 L72.2791277,18.619 C70.8456075,17.802 69.2735202,17.059 67.5439252,16.449 C67.45919,16.419 67.364486,16.393 67.277757,16.363 C67.8110903,13.029 69.5745794,5.916 72.9450467,3.893 L72.9450467,3.893 Z M93.0033645,80.756 C81.1982555,92.788 68.8747664,97.646 57.5770717,97.646 C28.3185047,97.646 5.95339564,65.053 17.3657321,40.079 C18.576947,37.748 19.9516511,35.645 21.4449844,33.737 C21.7290966,34.768 21.9384424,35.764 22.0550779,36.553 C22.1687227,37.304 22.8137072,37.843 23.5464174,37.843 C23.6211838,37.843 23.6959502,37.837 23.7727103,37.826 C24.5961371,37.703 25.1653583,36.932 25.0427414,36.105 C25.0178193,35.935 24.9410592,35.456 24.804486,34.789 C24.3409346,32.528 23.1636137,28.093 20.783053,26.082 C18.4672897,24.125 16,26.624 13.6164486,29.037 C11.4262928,31.254 8.69682243,34.011 6.29632399,33.544 C4.90866044,33.272 3.9905296,32.559 3.4871028,31.359 C2.4553271,28.904 3.36049844,24.705 5.68722741,21.147 C9.81433022,14.835 16.2133333,12.328 21.6064798,14.904 C25.9509034,16.98 28.0752648,25.502 28.5268536,28.612 C28.583676,29.001 28.7870405,29.33 29.0691589,29.561 C29.3851713,29.821 29.802866,29.954 30.2375078,29.893 C31.0629283,29.772 31.6341433,29.005 31.515514,28.179 C31.4925857,28.022 31.3091589,26.796 30.8814953,25.08 C39.0350156,19.738 48.3907788,17.782 56.0219315,17.782 C60.211838,17.782 63.8823676,18.369 66.5440498,19.309 C74.525109,22.122 78.9472897,28.017 80.6589408,30.79 C81.2291589,31.713 81.6887227,31.742 81.6887227,31.742 C81.6887227,31.742 82.2669159,31.733 82.6686604,31.487 C84.955514,30.09 87.5862928,29.425 90.2838629,29.425 C91.2598131,29.425 92.2447352,29.515 93.2246729,29.685 C93.094081,30.011 92.9674766,30.342 92.8558255,30.686 C90.8780062,36.723 95.0988162,43.151 98.8002492,44.372 C99.5299688,44.612 100.369346,44.734 101.295452,44.734 C103.534455,44.734 106.042617,44.031 108.177944,42.738 C111.19352,51.824 108.421184,65.042 93.0033645,80.756 L93.0033645,80.756 Z" id="Shape" fill="#000000"></path>
                <g transform="translate(38.878505, 24.000000)" fill="#CA2D30">
                    <path d="M16.1345794,0.225 C16.2242991,0.263 16.3209969,0.248 16.397757,0.2 C16.2671651,0.168 16.1365732,0.135 16.0039875,0.106 C16.0338941,0.156 16.0767601,0.199 16.1345794,0.225 L16.1345794,0.225 Z" id="Shape"></path>
                    <path d="M17.4763863,0.661 C17.5780685,0.705 17.6887227,0.682 17.7704673,0.619 C17.616947,0.563 17.4644237,0.508 17.3099065,0.458 C17.3308411,0.545 17.3866667,0.624 17.4763863,0.661 L17.4763863,0.661 Z" id="Shape"></path>
                    <path d="M18.9547664,1.118 C18.8720249,1.077 18.7872897,1.038 18.7015576,1 C18.7324611,1.041 18.7683489,1.079 18.8201869,1.099 C18.863053,1.118 18.9089097,1.122 18.9547664,1.118 L18.9547664,1.118 Z" id="Shape"></path>
                    <path d="M11.6695327,0.257 C11.8160748,0.321 11.9885358,0.251 12.0523364,0.103 C12.0862305,0.024 12.0802492,-0.061 12.0493458,-0.131 C11.8649221,-0.114 11.6834891,-0.093 11.5020561,-0.07 C11.4751402,0.063 11.5379439,0.203 11.6695327,0.257 L11.6695327,0.257 Z" id="Shape"></path>
                    <ellipse id="Oval" cx="17.1543925" cy="1.738" rx="0.292087227" ry="0.293"></ellipse>
                    <path d="M22.4099688,3.758 C22.4957009,3.794 22.5844237,3.784 22.65919,3.744 C22.529595,3.614 22.3970093,3.486 22.2634268,3.363 C22.2604361,3.366 22.2564486,3.37 22.2554517,3.374 C22.192648,3.522 22.261433,3.695 22.4099688,3.758 L22.4099688,3.758 Z" id="Shape"></path>
                    <path d="M8.93208723,0.574 C8.93707165,0.56 8.93707165,0.544 8.94105919,0.529 C8.7905296,0.581 8.63900312,0.633 8.49046729,0.69 C8.5094081,0.705 8.52535826,0.721 8.5482866,0.73 C8.69682243,0.793 8.86728972,0.724 8.93208723,0.574 L8.93208723,0.574 Z" id="Shape"></path>
                    <ellipse id="Oval" cx="11.3475389" cy="1.335" rx="0.293084112" ry="0.294"></ellipse>
                    <ellipse id="Oval" cx="12.6893458" cy="1.772" rx="0.292087227" ry="0.293"></ellipse>
                    <ellipse id="Oval" cx="15.3759502" cy="2.648" rx="0.293084112" ry="0.294"></ellipse>
                    <ellipse id="Oval" cx="23.4317757" cy="5.273" rx="0.293084112" ry="0.294"></ellipse>
                    <path d="M7.15264798,1.482 C7.18056075,1.418 7.17757009,1.35 7.15962617,1.288 C6.99214953,1.375 6.82566978,1.463 6.6611838,1.556 C6.69009346,1.59 6.72299065,1.62 6.76785047,1.638 C6.91638629,1.702 7.08884735,1.632 7.15264798,1.482 L7.15264798,1.482 Z" id="Shape"></path>
                    <ellipse id="Oval" cx="9.56809969" cy="2.243" rx="0.293084112" ry="0.294"></ellipse>
                    <ellipse id="Oval" cx="13.5965109" cy="3.556" rx="0.293084112" ry="0.294"></ellipse>
                    <ellipse id="Oval" cx="16.2811215" cy="4.432" rx="0.292087227" ry="0.293"></ellipse>
                    <ellipse id="Oval" cx="20.3085358" cy="5.745" rx="0.293084112" ry="0.294"></ellipse>
                    <path d="M5.36922118,2.397 C5.29445483,2.452 5.2176947,2.507 5.14292835,2.564 C5.23862928,2.55 5.32735202,2.492 5.36922118,2.397 L5.36922118,2.397 Z" id="Shape"></path>
                    <ellipse id="Oval" cx="6.4458567" cy="2.715" rx="0.292087227" ry="0.293"></ellipse>
                    <ellipse id="Oval" cx="14.5016822" cy="5.341" rx="0.293084112" ry="0.294"></ellipse>
                    <ellipse id="Oval" cx="17.1882866" cy="6.217" rx="0.292087227" ry="0.293"></ellipse>
                    <ellipse id="Oval" cx="18.5310903" cy="6.654" rx="0.293084112" ry="0.294"></ellipse>
                    <ellipse id="Oval" cx="21.2166978" cy="7.53" rx="0.292087227" ry="0.293"></ellipse>
                    <ellipse id="Oval" cx="4.66641745" cy="3.625" rx="0.293084112" ry="0.294"></ellipse>
                    <ellipse id="Oval" cx="7.35202492" cy="4.5" rx="0.292087227" ry="0.293"></ellipse>
                    <ellipse id="Oval" cx="12.7242368" cy="6.25" rx="0.292087227" ry="0.293"></ellipse>
                    <ellipse id="Oval" cx="19.4372586" cy="8.438" rx="0.293084112" ry="0.294"></ellipse>
                    <ellipse id="Oval" cx="23.4656698" cy="9.751" rx="0.293084112" ry="0.294"></ellipse>
                    <ellipse id="Oval" cx="26.1502804" cy="10.627" rx="0.292087227" ry="0.293"></ellipse>
                    <path d="M3.15713396,4.648 C3.19003115,4.571 3.18604361,4.49 3.15613707,4.417 C3.04249221,4.547 2.93283489,4.68 2.82517134,4.813 C2.95875389,4.845 3.10130841,4.781 3.15713396,4.648 L3.15713396,4.648 Z" id="Shape"></path>
                    <ellipse id="Oval" cx="5.57258567" cy="5.409" rx="0.293084112" ry="0.294"></ellipse>
                    <ellipse id="Oval" cx="8.25919003" cy="6.284" rx="0.293084112" ry="0.294"></ellipse>
                    <ellipse id="Oval" cx="9.60199377" cy="6.722" rx="0.293084112" ry="0.294"></ellipse>
                    <ellipse id="Oval" cx="12.2876012" cy="7.597" rx="0.293084112" ry="0.294"></ellipse>
                    <ellipse id="Oval" cx="17.6578193" cy="9.348" rx="0.292087227" ry="0.293"></ellipse>
                    <ellipse id="Oval" cx="20.3434268" cy="10.222" rx="0.292087227" ry="0.293"></ellipse>
                    <ellipse id="Oval" cx="21.6872274" cy="10.661" rx="0.292087227" ry="0.293"></ellipse>
                    <ellipse id="Oval" cx="24.3728349" cy="11.536" rx="0.293084112" ry="0.294"></ellipse>
                    <ellipse id="Oval" cx="10.508162" cy="8.507" rx="0.293084112" ry="0.294"></ellipse>
                    <ellipse id="Oval" cx="13.1927726" cy="9.382" rx="0.293084112" ry="0.294"></ellipse>
                    <ellipse id="Oval" cx="17.2211838" cy="10.694" rx="0.293084112" ry="0.294"></ellipse>
                    <ellipse id="Oval" cx="22.5933956" cy="12.446" rx="0.292087227" ry="0.293"></ellipse>
                    <ellipse id="Oval" cx="25.2780062" cy="13.321" rx="0.293084112" ry="0.294"></ellipse>
                    <path d="M26.3516511,13.644 C26.2888474,13.792 26.3576324,13.965 26.5061682,14.028 C26.6198131,14.077 26.7454206,14.048 26.828162,13.965 C26.828162,13.93 26.8301558,13.895 26.8301558,13.861 C26.8301558,13.757 26.8241745,13.653 26.8231776,13.548 C26.7982555,13.524 26.7693458,13.503 26.7354517,13.488 C26.5869159,13.425 26.4134579,13.495 26.3516511,13.644 L26.3516511,13.644 Z" id="Shape"></path>
                    <ellipse id="Oval" cx="3.35750779" cy="7.665" rx="0.293084112" ry="0.294"></ellipse>
                    <ellipse id="Oval" cx="8.72971963" cy="9.416" rx="0.293084112" ry="0.294"></ellipse>
                    <ellipse id="Oval" cx="11.4133333" cy="10.291" rx="0.292087227" ry="0.293"></ellipse>
                    <ellipse id="Oval" cx="15.4427414" cy="11.604" rx="0.293084112" ry="0.294"></ellipse>
                    <ellipse id="Oval" cx="22.1567601" cy="13.792" rx="0.293084112" ry="0.294"></ellipse>
                    <ellipse id="Oval" cx="23.498567" cy="14.23" rx="0.293084112" ry="0.294"></ellipse>
                    <ellipse id="Oval" cx="1.57906542" cy="8.574" rx="0.292087227" ry="0.293"></ellipse>
                    <ellipse id="Oval" cx="4.26367601" cy="9.45" rx="0.293084112" ry="0.294"></ellipse>
                    <ellipse id="Oval" cx="8.29308411" cy="10.763" rx="0.293084112" ry="0.294"></ellipse>
                    <ellipse id="Oval" cx="13.6633022" cy="12.514" rx="0.293084112" ry="0.294"></ellipse>
                    <path d="M16.4635514,13.118 C16.3150156,13.055 16.1435514,13.124 16.0797508,13.273 C16.0767601,13.28 16.077757,13.288 16.0757632,13.297 C16.2631776,13.299 16.449595,13.316 16.6330218,13.341 C16.6180685,13.247 16.5582555,13.159 16.4635514,13.118 L16.4635514,13.118 Z" id="Shape"></path>
                    <path d="M17.8063551,13.556 C17.7186293,13.519 17.625919,13.532 17.548162,13.576 C17.6937072,13.63 17.8342679,13.692 17.9728349,13.761 C17.9509034,13.673 17.8950779,13.594 17.8063551,13.556 L17.8063551,13.556 Z" id="Shape"></path>
                    <path d="M19.303676,14.379 C19.3674766,14.23 19.2976947,14.058 19.1491589,13.994 C19.0006231,13.93 18.8301558,14 18.7643614,14.149 C18.750405,14.183 18.7454206,14.218 18.7444237,14.252 C18.8610592,14.346 18.974704,14.444 19.0833645,14.549 C19.1780685,14.531 19.2628037,14.474 19.303676,14.379 L19.303676,14.379 Z" id="Shape"></path>
                    <ellipse id="Oval" cx="20.3773209" cy="14.701" rx="0.292087227" ry="0.293"></ellipse>
                    <ellipse id="Oval" cx="2.48623053" cy="10.358" rx="0.293084112" ry="0.294"></ellipse>
                    <ellipse id="Oval" cx="6.51364486" cy="11.672" rx="0.292087227" ry="0.293"></ellipse>
                    <ellipse id="Oval" cx="9.19925234" cy="12.548" rx="0.293084112" ry="0.294"></ellipse>
                    <path d="M20.2098442,16.164 C20.2736449,16.015 20.2038629,15.842 20.0553271,15.778 C20.0323988,15.768 20.0074766,15.766 19.9835514,15.764 C20.0553271,15.909 20.1231153,16.056 20.1799377,16.209 C20.1909034,16.194 20.2038629,16.181 20.2098442,16.164 L20.2098442,16.164 Z" id="Shape"></path>
                    <ellipse id="Oval" cx="21.284486" cy="16.486" rx="0.292087227" ry="0.293"></ellipse>
                    <ellipse id="Oval" cx="0.706791277" cy="11.269" rx="0.293084112" ry="0.294"></ellipse>
                    <ellipse id="Oval" cx="4.73520249" cy="12.581" rx="0.293084112" ry="0.294"></ellipse>
                    <ellipse id="Oval" cx="7.4188162" cy="13.457" rx="0.292087227" ry="0.293"></ellipse>
                    <ellipse id="Oval" cx="11.4472274" cy="14.77" rx="0.292087227" ry="0.293"></ellipse>
                    <ellipse id="Oval" cx="22.1906542" cy="18.271" rx="0.292087227" ry="0.293"></ellipse>
                    <ellipse id="Oval" cx="23.5324611" cy="18.709" rx="0.293084112" ry="0.294"></ellipse>
                    <ellipse id="Oval" cx="0.270155763" cy="12.615" rx="0.292087227" ry="0.293"></ellipse>
                    <ellipse id="Oval" cx="5.64037383" cy="14.366" rx="0.293084112" ry="0.294"></ellipse>
                    <ellipse id="Oval" cx="8.32697819" cy="15.241" rx="0.293084112" ry="0.294"></ellipse>
                    <ellipse id="Oval" cx="9.66778816" cy="15.679" rx="0.293084112" ry="0.294"></ellipse>
                    <path d="M20.2965732,19.45 C20.445109,19.513 20.6165732,19.444 20.6813707,19.294 C20.7441745,19.146 20.6753894,18.974 20.5268536,18.91 C20.4849844,18.892 20.4401246,18.887 20.3972586,18.889 C20.3593769,19.072 20.3085358,19.247 20.2507165,19.419 C20.2656698,19.43 20.2796262,19.442 20.2965732,19.45 L20.2965732,19.45 Z" id="Shape"></path>
                    <ellipse id="Oval" cx="24.4396262" cy="20.493" rx="0.293084112" ry="0.294"></ellipse>
                    <path d="M0.103676012,14.077 C0.166479751,13.928 0.097694704,13.756 -0.0508411215,13.692 C-0.162492212,13.644 -0.289096573,13.673 -0.372834891,13.756 C-0.372834891,13.791 -0.37482866,13.825 -0.37482866,13.86 C-0.37482866,13.964 -0.367850467,14.068 -0.366853583,14.172 C-0.341931464,14.196 -0.312024922,14.218 -0.280124611,14.233 C-0.13258567,14.296 0.0398753894,14.226 0.103676012,14.077 L0.103676012,14.077 Z" id="Shape"></path>
                    <ellipse id="Oval" cx="5.20573209" cy="15.712" rx="0.292087227" ry="0.293"></ellipse>
                    <ellipse id="Oval" cx="10.5759502" cy="17.463" rx="0.292087227" ry="0.293"></ellipse>
                    <path d="M19.8599377,20.798 C20.0084735,20.862 20.1809346,20.791 20.2447352,20.643 C20.3075389,20.494 20.2387539,20.322 20.0902181,20.258 C20.0204361,20.228 19.9446729,20.23 19.8798754,20.253 C19.8180685,20.357 19.7562617,20.461 19.6904673,20.56 C19.7004361,20.662 19.7592523,20.754 19.8599377,20.798 L19.8599377,20.798 Z" id="Shape"></path>
                    <ellipse id="Oval" cx="22.65919" cy="21.402" rx="0.293084112" ry="0.294"></ellipse>
                    <ellipse id="Oval" cx="0.740685358" cy="15.747" rx="0.293084112" ry="0.294"></ellipse>
                    <ellipse id="Oval" cx="3.42728972" cy="16.622" rx="0.293084112" ry="0.294"></ellipse>
                    <path d="M11.5967601,18.979 C11.4482243,18.915 11.2767601,18.985 11.2119626,19.134 C11.1491589,19.282 11.2199377,19.455 11.3664798,19.519 C11.5150156,19.582 11.6874766,19.513 11.7512773,19.363 C11.7582555,19.345 11.7582555,19.326 11.762243,19.308 C11.736324,19.224 11.7163863,19.137 11.6964486,19.05 C11.6695327,19.021 11.6366355,18.995 11.5967601,18.979 L11.5967601,18.979 Z" id="Shape"></path>
                    <ellipse id="Oval" cx="22.2245483" cy="22.75" rx="0.292087227" ry="0.293"></ellipse>
                    <path d="M23.2971963,23.072 C23.2642991,23.149 23.2692835,23.233 23.2981931,23.303 C23.411838,23.173 23.5224922,23.041 23.6311526,22.907 C23.4945794,22.875 23.3540187,22.939 23.2971963,23.072 L23.2971963,23.072 Z" id="Shape"></path>
                    <ellipse id="Oval" cx="1.64685358" cy="17.532" rx="0.292087227" ry="0.293"></ellipse>
                    <ellipse id="Oval" cx="4.33246106" cy="18.407" rx="0.293084112" ry="0.294"></ellipse>
                    <ellipse id="Oval" cx="8.35987539" cy="19.719" rx="0.293084112" ry="0.294"></ellipse>
                    <path d="M12.5039252,20.762 C12.3553894,20.698 12.1839252,20.768 12.1191277,20.917 C12.056324,21.066 12.1261059,21.239 12.2746417,21.303 C12.4231776,21.366 12.5936449,21.297 12.6574455,21.147 C12.6853583,21.084 12.6833645,21.016 12.6664174,20.954 C12.6155763,20.894 12.5657321,20.835 12.5198754,20.773 C12.5138941,20.771 12.5089097,20.765 12.5039252,20.762 L12.5039252,20.762 Z" id="Shape"></path>
                    <path d="M16.303053,22.616 C16.4456075,22.676 16.605109,22.614 16.6758879,22.478 C16.5153894,22.501 16.3538941,22.518 16.1894081,22.523 C16.2193146,22.562 16.2542056,22.596 16.303053,22.616 L16.303053,22.616 Z" id="Shape"></path>
                    <ellipse id="Oval" cx="20.445109" cy="23.658" rx="0.292087227" ry="0.293"></ellipse>
                    <ellipse id="Oval" cx="2.55302181" cy="19.316" rx="0.293084112" ry="0.294"></ellipse>
                    <ellipse id="Oval" cx="6.58242991" cy="20.629" rx="0.292087227" ry="0.293"></ellipse>
                    <ellipse id="Oval" cx="9.2670405" cy="21.504" rx="0.292087227" ry="0.293"></ellipse>
                    <ellipse id="Oval" cx="14.6382555" cy="23.255" rx="0.293084112" ry="0.294"></ellipse>
                    <ellipse id="Oval" cx="18.6656698" cy="24.568" rx="0.293084112" ry="0.294"></ellipse>
                    <path d="M21.085109,25.324 C21.1598754,25.268 21.2376324,25.215 21.3114019,25.157 L21.3114019,25.157 C21.214704,25.17 21.1269782,25.228 21.085109,25.324 L21.085109,25.324 Z" id="Shape"></path>
                    <ellipse id="Oval" cx="7.48859813" cy="22.414" rx="0.293084112" ry="0.294"></ellipse>
                    <ellipse id="Oval" cx="11.5160125" cy="23.727" rx="0.292087227" ry="0.293"></ellipse>
                    <ellipse id="Oval" cx="14.2016199" cy="24.601" rx="0.292087227" ry="0.293"></ellipse>
                    <path d="M19.3026791,26.238 C19.2757632,26.302 19.277757,26.37 19.294704,26.433 C19.4631776,26.347 19.6306542,26.257 19.7931464,26.164 C19.7642368,26.13 19.7313396,26.101 19.6864798,26.082 C19.5379439,26.019 19.3664798,26.089 19.3026791,26.238 L19.3026791,26.238 Z" id="Shape"></path>
                    <ellipse id="Oval" cx="5.70915888" cy="23.323" rx="0.292087227" ry="0.293"></ellipse>
                    <ellipse id="Oval" cx="9.73757009" cy="24.636" rx="0.292087227" ry="0.293"></ellipse>
                    <ellipse id="Oval" cx="12.4241745" cy="25.511" rx="0.293084112" ry="0.294"></ellipse>
                    <path d="M17.5242368,27.146 C17.5172586,27.161 17.5172586,27.176 17.513271,27.191 C17.6638006,27.139 17.8173209,27.087 17.9638629,27.029 C17.9449221,27.014 17.9309657,26.999 17.9070405,26.989 C17.7585047,26.927 17.5880374,26.997 17.5242368,27.146 L17.5242368,27.146 Z" id="Shape"></path>
                    <path d="M4.04436137,23.961 C3.95862928,23.925 3.86990654,23.936 3.79514019,23.975 L3.79514019,23.975 C3.92672897,24.105 4.05732087,24.233 4.19190031,24.356 C4.19389408,24.353 4.19788162,24.349 4.1988785,24.346 C4.26168224,24.197 4.1928972,24.025 4.04436137,23.961 L4.04436137,23.961 Z" id="Shape"></path>
                    <ellipse id="Oval" cx="5.27252336" cy="24.67" rx="0.293084112" ry="0.294"></ellipse>
                    <ellipse id="Oval" cx="10.6447352" cy="26.421" rx="0.292087227" ry="0.293"></ellipse>
                    <ellipse id="Oval" cx="13.3293458" cy="27.296" rx="0.293084112" ry="0.294"></ellipse>
                    <path d="M14.7867913,27.463 C14.6382555,27.4 14.4657944,27.469 14.4019938,27.618 C14.3680997,27.696 14.3750779,27.781 14.4059813,27.851 C14.590405,27.834 14.7708411,27.814 14.953271,27.791 C14.9811838,27.658 14.9163863,27.518 14.7867913,27.463 L14.7867913,27.463 Z" id="Shape"></path>
                    <path d="M7.63713396,26.622 C7.59227414,26.603 7.54542056,26.599 7.50056075,26.603 C7.58529595,26.644 7.66803738,26.683 7.75376947,26.721 L7.75376947,26.721 C7.72386293,26.679 7.68797508,26.644 7.63713396,26.622 L7.63713396,26.622 Z" id="Shape"></path>
                    <path d="M8.97993769,27.06 C8.87725857,27.017 8.76660436,27.04 8.6858567,27.104 L8.6858567,27.104 C8.83738318,27.159 8.99090343,27.214 9.14442368,27.263 C9.12448598,27.175 9.06766355,27.098 8.97993769,27.06 L8.97993769,27.06 Z" id="Shape"></path>
                </g>
                <ellipse id="Oval" fill="#000000" cx="74.8720249" cy="34.378" rx="3.85096573" ry="3.979"></ellipse>
                <path d="M70.7558879,60.799 L62.7050467,71.179 L74.2250467,76.816 C74.2250467,76.816 99.8609346,71.189 93.3652336,62.822 C86.8685358,54.454 70.7558879,60.799 70.7558879,60.799 L70.7558879,60.799 Z" id="Shape" fill="#C92F2B"></path>
                <path d="M54.9054206,46.532 C54.9612461,46.532 55.0130841,46.526 55.0669159,46.523 C55.2314019,46.517 55.3928972,46.501 55.5533956,46.478 C56.7985047,46.29 57.8751402,45.578 58.5649844,44.56 C58.6317757,44.46 58.6955763,44.358 58.7553894,44.253 C58.9049221,43.991 59.0285358,43.711 59.1272274,43.42 C59.1850467,43.248 59.234891,43.071 59.2737695,42.89 C59.338567,42.576 59.3754517,42.251 59.3754517,41.914 C59.3754517,41.311 59.26081,40.737 59.0574455,40.21 C58.9986293,40.056 58.9328349,39.908 58.8610592,39.764 C58.6277882,39.309 58.3217445,38.899 57.9618692,38.549 C57.8542056,38.445 57.7395639,38.346 57.6229283,38.252 C57.3826791,38.062 57.124486,37.897 56.8513396,37.76 C56.7137695,37.691 56.5722118,37.629 56.4266667,37.575 C56.1335826,37.466 55.8275389,37.386 55.5105296,37.341 C55.3261059,37.316 55.1416822,37.298 54.953271,37.296 C54.9343302,37.296 54.9203738,37.294 54.9044237,37.294 C52.4331464,37.294 50.4323988,39.362 50.4323988,41.913 C50.4323988,42.306 50.4852336,42.685 50.5759502,43.05 C50.5968847,43.136 50.6168224,43.223 50.6407477,43.307 C50.8072274,43.846 51.0664174,44.34 51.3973832,44.774 C51.4442368,44.836 51.494081,44.895 51.5439252,44.955 C52.3643614,45.919 53.5636137,46.532 54.9054206,46.532 L54.9054206,46.532 Z" id="Shape" fill="#000000"></path>
                <path d="M89.8811215,49.299 C87.5902804,49.299 85.3333333,50.635 82.9457944,52.048 C80.6270405,53.419 78.2285358,54.839 75.5578816,55.27 C75.3226168,55.308 75.0644237,55.327 74.7902804,55.327 C73.1135202,55.327 70.9632399,54.604 68.8857321,53.907 C66.5480374,53.119 64.129595,52.307 61.9185047,52.307 C59.7901558,52.307 58.0954517,53.078 56.8792523,54.6 C56.2223053,55.422 55.7457944,56.343 55.4457321,57.331 C52.7680997,55.837 49.2321495,55.131 44.9774455,55.274 C44.4999377,55.291 44.1271028,55.691 44.1440498,56.169 C44.1619938,56.647 44.5687227,57.016 45.0362617,57.004 C45.2366355,56.997 45.4409969,56.994 45.647352,56.991 C49.6199377,56.937 54.668162,57.671 57.4395016,61.222 C59.7044237,64.123 60.0862305,68.484 58.5899065,74.183 C58.5330841,74.398 58.4812461,74.608 58.4194393,74.826 C58.2888474,75.284 58.5570093,75.764 59.0145794,75.893 C59.0923364,75.916 59.1720872,75.926 59.2498442,75.926 C59.6266667,75.926 59.9715888,75.676 60.0792523,75.298 C60.4650467,73.935 60.7461682,72.64 60.9335826,71.405 C64.7765732,75.022 70.2066044,77.737 76.2327726,77.737 L76.2337695,77.737 C77.6164486,77.737 78.9961371,77.587 80.328972,77.289 C90.1333333,75.107 94.2076012,69.13 95.7637383,65.758 C97.6358879,61.708 97.8880997,57.27 96.4077259,54.447 C94.5923988,50.983 92.4560748,49.299 89.8811215,49.299 L89.8811215,49.299 Z M89.3009346,51.944 C89.2530841,53.457 88.9669782,56.77 87.385919,56.77 C86.4338941,56.77 85.7231153,54.907 85.3512773,53.644 C86.7798131,52.82 88.1246106,52.127 89.3009346,51.944 L89.3009346,51.944 Z M65.3866667,59.92 C64.0249221,59.92 63.3619938,56.835 63.0858567,54.997 C64.4904673,55.197 66.0595639,55.696 67.6137072,56.216 C67.1561371,57.684 66.3067913,59.92 65.3866667,59.92 L65.3866667,59.92 Z M93.4180685,64.668 C92.0633022,67.603 88.4874766,72.815 79.7707165,74.753 C78.6183178,75.011 77.4280374,75.14 76.2347664,75.14 L76.2337695,75.14 C72.5652336,75.14 69.1070405,73.95 66.1911526,72.149 C67.9157632,69.239 73.3796885,61.667 83.4910903,61.667 C86.703053,61.667 90.145296,62.44 93.7290966,63.946 C93.6323988,64.186 93.5287227,64.427 93.4180685,64.668 L93.4180685,64.668 Z" id="Shape" fill="#000000"></path>
                <g transform="translate(116.635514, 34.000000)" id="Shape">
                    <path d="M2.23102804,12.297 L30.703053,2.479"></path>
                    <path d="M2.23003115,14.46 C1.33482866,14.46 0.498442368,13.896 0.191401869,12.999 C-0.196386293,11.87 0.403738318,10.639 1.53021807,10.25 L30.0032399,0.432 C31.1277259,0.044 32.3558879,0.645 32.7446729,1.775 C33.1324611,2.905 32.5323364,4.136 31.4048598,4.525 L2.93183801,14.343 C2.70056075,14.423 2.46429907,14.46 2.23003115,14.46 L2.23003115,14.46 Z" fill="#CA2D30"></path>
                </g>
                <g transform="translate(111.651090, 64.000000)" id="Shape">
                    <path d="M1.72760125,2.35 L29.0492212,12.75"></path>
                    <path d="M29.0482243,14.916 C28.7940187,14.916 28.5358255,14.87 28.2836137,14.773 L0.961993769,4.375 C-0.152523364,3.951 -0.712772586,2.701 -0.290093458,1.584 C0.133582555,0.465 1.37869159,-0.096 2.49221184,0.33 L29.8138318,10.727 C30.9283489,11.152 31.4885981,12.402 31.065919,13.519 C30.7379439,14.382 29.9185047,14.916 29.0482243,14.916 L29.0482243,14.916 Z" fill="#CA2D30"></path>
                </g>
                <g transform="translate(104.672897, 81.000000)" id="Shape">
                    <path d="M2.57096573,1.673 L19.8270405,21.697"></path>
                    <path d="M19.8280374,23.86 C19.2239252,23.86 18.6228037,23.606 18.1951402,23.113 L0.938068536,3.087 C0.161495327,2.184 0.258193146,0.817 1.16137072,0.035 C2.06454829,-0.747 3.42529595,-0.648 4.20286604,0.257 L21.4599377,20.284 C22.2375078,21.187 22.1388162,22.554 21.2376324,23.336 C20.8299065,23.688 20.3274766,23.86 19.8280374,23.86 L19.8280374,23.86 Z" fill="#CA2D30"></path>
                </g>
                <g transform="translate(101.682243, 26.000000)" id="Shape" fill="#FFFFFF">
                    <path d="M7.91725857,2.732 C6.11788162,0.453 3.7552648,-0.551 0.879252336,-0.487 C0.0448598131,-0.469 0.0438629283,0.829 0.879252336,0.811 C3.44323988,0.754 5.40211838,1.626 7.00211838,3.649 C7.52049844,4.306 8.42965732,3.381 7.91725857,2.732 L7.91725857,2.732 Z"></path>
                    <path d="M9.18529595,4.489 C8.35090343,4.489 8.35090343,5.787 9.18529595,5.787 C10.0206854,5.787 10.0206854,4.489 9.18529595,4.489 L9.18529595,4.489 Z"></path>
                </g>
            </g>
            <g id="Group" transform="translate(156.510903, 13.000000)" sketch:type="MSShapeGroup">
                <path d="M21.7679751,77.246 C19.7123988,78.721 19.381433,83.535 20.7003115,85.81 C21.2665421,86.79 21.734081,86.673 22.2833645,86.421 C24.4157009,85.437 25.7236137,82.519 26.4692835,79.796 C26.6188162,78.61 26.8221807,77.442 27.0305296,76.396 C26.5440498,76.232 25.9130218,76.089 25.1872897,76.089 C24.181433,76.09 22.9951402,76.365 21.7679751,77.246 L21.7679751,77.246 Z" id="Shape"></path>
                <path d="M75.9217445,66.51 C76.3992523,63.27 75.7482866,60.77 73.9329595,58.867 C70.8565732,55.642 64.8254206,54.568 59.9546417,54.328 L61.9175078,79.887 C62.7638629,79.707 63.6341433,79.487 64.5133956,79.205 C71.1556386,77.078 74.9946417,72.805 75.9217445,66.51 L75.9217445,66.51 Z" id="Shape"></path>
                <path d="M101.175826,89.496 C100.670405,90.959 100.402243,92.506 100.563738,93.787 C100.64947,94.414 100.826916,94.961 101.078131,95.312 C101.323364,95.677 101.597508,95.886 102.016199,96.039 C102.863551,96.355 104.27514,96.221 105.76648,95.689 C107.880872,95.066 109.549657,92.156 110.519626,89.22 C111.146667,87.388 111.599252,85.49 111.960125,83.599 C111.150654,83.556 110.342181,83.505 109.531713,83.48 C109.531713,83.478 109.53271,83.478 109.53271,83.476 C107.947664,83.425 106.365607,83.415 104.784548,83.449 C104.27215,84.027 103.789657,84.633 103.343053,85.265 C102.418941,86.576 101.677259,88.018 101.175826,89.496 L101.175826,89.496 Z" id="Shape"></path>
                <path d="M65.7724611,34.663 C64.9590031,32.87 64.0807477,31.126 62.849595,30.175 C61.8367601,29.392 60.8039875,29.001 59.7612461,29.001 C59.0753894,29.001 58.3865421,29.169 57.6957009,29.509 C55.3181308,30.677 53.448972,33.628 53.4390031,36.226 C53.4350156,37.816 54.1109034,38.927 55.5065421,39.623 C58.6008723,41.17 61.0711526,40.797 63.2812461,38.452 C64.2731464,37.401 65.098567,36.099 65.7724611,34.663 L65.7724611,34.663 Z" id="Shape"></path>
                <path d="M26.5440498,26.464 L27.0783801,26.12 L28.1141433,25.411 C28.8299065,24.913 29.5297196,24.407 30.2076012,23.893 C31.5563863,22.862 32.7995016,21.789 33.8532087,20.627 C34.888972,19.453 35.7592523,18.205 36.4152025,16.791 C36.774081,16.043 36.9963863,15.5 37.3153894,14.566 C37.5606231,13.888 37.69919,13.242 37.7570093,12.601 C37.8566978,11.314 37.5606231,10.277 36.8966978,9.535 C36.557757,9.156 36.1041745,8.824 35.5449221,8.549 C35.0016199,8.285 34.2669159,8.061 33.6568224,7.94 C32.0757632,7.649 30.4408723,7.565 28.7810592,7.596 C26.2449844,7.664 23.6660436,8.037 21.2565732,8.733 C21.1758255,9.585 21.0781308,10.504 20.9515265,11.489 C20.6085981,14.272 20.2098442,17.518 19.7811838,20.999 C19.5489097,22.749 19.3844237,24.507 19.0803738,26.386 C19.0195639,26.724 18.9597508,27.072 18.8999377,27.409 C20.3823053,27.124 21.8696573,26.886 23.3729595,26.72 C24.4256698,26.608 25.4823676,26.521 26.5440498,26.464 L26.5440498,26.464 Z" id="Shape"></path>
                <path d="M28.1649844,31.796 C26.6696573,32.673 25.2122118,33.403 23.6999377,34.077 C21.9683489,34.847 20.2158255,35.516 18.4642991,36.128 L17.3039252,36.503 C16.943053,38.562 16.5851713,40.592 16.2432399,42.545 C15.6201869,45.967 15.1317134,49.152 14.5515265,51.897 C14.3780685,52.762 14.2165732,53.579 14.063053,54.346 C16.9639875,54.16 19.9018069,53.619 22.7578816,52.819 C26.0555763,51.887 29.2745171,50.624 32.2432399,49.007 C35.1870405,47.392 37.9623676,45.394 39.8235514,42.972 C40.7486604,41.771 41.4076012,40.476 41.6588162,39.194 C41.6797508,39.042 41.7285981,38.852 41.7335826,38.733 C41.7405607,38.575 41.7714642,38.542 41.7754517,38.284 L41.7854206,37.946 L41.7884112,37.86 C41.7884112,37.86 41.7884112,37.86 41.7884112,37.839 L41.7864174,37.81 L41.7834268,37.751 C41.7694704,37.595 41.7804361,37.427 41.7525234,37.28 C41.686729,36.669 41.5242368,36.13 41.2720249,35.645 C40.7715888,34.688 39.7996262,33.877 38.5016822,33.27 C37.2027414,32.67 35.6605607,32.28 34.0565732,32.051 C32.1495327,31.784 30.166729,31.728 28.1649844,31.796 L28.1649844,31.796 Z" id="Shape"></path>
                <path d="M112.796511,77.898 C111.976075,78.214 111.164611,78.58 110.380062,79.003 C109.291464,79.581 108.253707,80.276 107.279751,81.064 C108.980436,81.05 110.678131,81.093 112.371838,81.164 C112.426667,80.803 112.48648,80.437 112.535327,80.08 C112.633022,79.346 112.720748,78.619 112.796511,77.898 L112.796511,77.898 Z" id="Shape"></path>
                <path d="M152.32,49.867 C152.57919,49.344 152.826417,48.808 153.053707,48.263 L153.053707,48.263 C152.226293,47.931 151.358006,47.689 150.475763,47.536 C150.376075,47.52 150.275389,47.513 150.173707,47.499 C149.830779,47.448 149.486854,47.403 149.141931,47.382 C148.67838,47.357 148.216822,47.351 147.759252,47.376 C146.678629,47.435 145.76947,47.571 144.858318,47.899 C143.956137,48.213 143.115763,48.702 142.372087,49.311 C141.620436,49.911 140.958505,50.633 140.431153,51.436 C139.911776,52.241 139.570841,53.174 139.537944,54.057 C139.487103,54.946 139.732336,55.735 140.18891,56.213 C140.64947,56.709 141.303427,56.965 142.197632,57.018 C144.056822,57.159 145.949907,56.762 147.474143,55.789 C149.028287,54.832 150.305296,53.351 151.337072,51.656 C151.654081,51.142 151.946168,50.611 152.221308,50.066 C152.255202,50 152.287103,49.934 152.32,49.867 L152.32,49.867 Z" id="Shape"></path>
                <path d="M24.0408723,57.512 C27.675514,56.522 31.2134579,55.182 34.5909034,53.391 C37.9404361,51.577 41.2211838,49.371 43.8270405,46.098 C45.1090343,44.463 46.2046106,42.496 46.6811215,40.235 C46.7319626,39.942 46.7957632,39.692 46.8306542,39.363 C46.8615576,39.072 46.9123988,38.658 46.9143925,38.465 L46.9283489,38.127 L46.9353271,37.959 L46.9313396,37.645 C46.9163863,37.352 46.9233645,37.065 46.8824922,36.766 C46.771838,35.584 46.4418692,34.354 45.8646729,33.237 C44.6983178,30.962 42.6716511,29.438 40.7376947,28.52 C39.0071028,27.702 37.2735202,27.053 35.3206231,26.793 C35.3206231,26.793 37.7191277,24.365 37.8357632,24.232 C39.1865421,22.711 40.3917757,20.964 41.2471028,19.099 C41.6697819,18.22 42.0964486,17.078 42.343676,16.3 C42.698567,15.277 42.9457944,14.146 43.0265421,12.988 C43.1013084,11.822 43.009595,10.592 42.646729,9.371 C42.2838629,8.154 41.6279128,6.967 40.7486604,6.014 C39.870405,5.059 38.8166978,4.352 37.7520249,3.852 C36.661433,3.36 35.6575701,3.065 34.5031776,2.852 C32.5383178,2.52 30.5604984,2.444 28.6265421,2.506 C26.3018069,2.604 23.9990031,2.893 21.7300935,3.432 C21.7968847,2.678 21.8347664,2.26 21.8347664,2.26 L17.1284735,1.889 C17.1284735,1.889 17.063676,2.813 16.9490343,4.43 C16.9330841,4.612 16.9201246,4.805 16.9041745,5.006 C15.1735826,5.766 13.4479751,6.735 11.8988162,8.289 C11.0903427,9.123 10.3317134,10.18 9.90305296,11.484 C9.68074766,12.129 9.57607477,12.832 9.55813084,13.523 C9.55613707,13.628 9.55813084,13.738 9.56411215,13.849 C9.57607477,14.126 9.60897196,14.421 9.64186916,14.697 C9.64186916,14.697 9.60299065,15.068 10.0804984,15.127 C10.7683489,15.211 11.1680997,15.098 11.1680997,15.098 L13.7520249,14.578 C13.7520249,14.578 14.1338318,14.467 14.2115888,14.346 C14.287352,14.225 14.2893458,13.797 14.2893458,13.797 C14.3142679,13.733 14.3013084,13.705 14.305296,13.619 C14.3262305,13.412 14.3501558,13.213 14.4319003,13.006 C14.5784424,12.598 14.8834891,12.143 15.3370717,11.699 C15.654081,11.388 16.0418692,11.099 16.4565732,10.822 C16.4456075,10.918 16.4376324,11.01 16.4276636,11.105 C16.1445483,13.841 15.8145794,17.035 15.4596885,20.457 C15.2712773,22.152 15.1307165,23.975 14.8874766,25.699 C14.7449221,26.611 14.5993769,27.543 14.4568224,28.467 C13.725109,28.678 12.9943925,28.891 12.2646729,29.139 C11.3435514,29.461 10.4234268,29.815 9.4823676,30.268 C8.53034268,30.754 7.59825545,31.182 6.46778816,32.268 C6.3152648,32.418 6.08498442,32.692 5.92448598,32.909 L5.82978193,33.05 L5.78093458,33.12 C5.5905296,33.421 5.65433022,33.337 5.58255452,33.466 L5.4728972,33.71 C5.41507788,33.835 5.3223676,34.146 5.28647975,34.401 C5.24361371,34.63 5.2376324,35.028 5.30242991,35.374 C5.35825545,35.718 5.4988162,36.063 5.68124611,36.372 C5.8517134,36.649 6.02218069,36.839 6.23152648,37.038 C6.9482866,37.634 7.30417445,37.667 7.62317757,37.784 C8.20535826,37.934 8.54529595,37.948 8.88024922,37.97 C9.20623053,37.986 9.49233645,37.984 9.7694704,37.976 C10.3187539,37.958 10.8231776,37.917 11.3266044,37.861 L11.7044237,37.818 L12.185919,37.75 L12.8847352,37.609 C12.9375701,37.599 12.9884112,37.588 13.0402492,37.578 C12.8119626,39.047 12.5856698,40.501 12.3663551,41.909 C11.8130841,45.331 11.381433,48.563 10.8610592,51.266 C10.6616822,52.389 10.4752648,53.43 10.3038006,54.383 C9.48037383,54.334 8.67489097,54.242 7.90728972,54.086 C6.38903427,53.83 5.03725857,53.303 4.15202492,52.549 L4.01345794,52.404 C4.09221184,52.498 3.96161994,52.383 3.92274143,52.336 C3.86193146,52.272 3.79613707,52.195 3.73931464,52.111 C3.60971963,51.951 3.49806854,51.756 3.39638629,51.549 C3.29669782,51.338 3.21096573,51.111 3.15115265,50.867 C3.08735202,50.625 3.04049844,50.367 3.00361371,50.099 C2.91190031,49.562 2.97071651,48.982 3.00361371,48.38 C3.05246106,47.958 3.12224299,47.526 3.20996885,47.089 C3.24884735,46.901 3.25283489,46.843 3.23190031,46.622 C3.21096573,46.399 2.96971963,46.351 2.96971963,46.351 C2.96971963,46.351 2.06753894,45.808 1.7435514,46.027 C1.39563863,46.263 1.14342679,46.541 1.14342679,46.541 L1.06168224,46.668 C0.88623053,47.002 0.714766355,47.342 0.555264798,47.693 C0.259190031,48.408 0.0159501558,49.168 -0.086728972,49.998 C-0.204361371,50.822 -0.174454829,51.701 0.0169470405,52.586 C0.119626168,53.025 0.252211838,53.471 0.454579439,53.904 C0.554267913,54.121 0.672897196,54.334 0.807476636,54.549 C0.875264798,54.654 0.94305296,54.762 1.02878505,54.873 C1.1234891,54.994 1.16635514,55.066 1.36274143,55.268 L1.22417445,55.125 C2.76834891,57.086 4.91962617,57.986 6.8765109,58.535 C7.74978193,58.752 8.61507788,58.898 9.47538941,59.004 C9.32386293,59.854 9.23813084,60.328 9.23813084,60.328 L12.7232399,61.027 C12.7232399,61.027 12.8578193,60.355 13.0950779,59.164 C16.8633022,59.084 20.4989408,58.459 24.0408723,57.512 L24.0408723,57.512 Z M41.2700312,35.644 C41.5232399,36.128 41.6847352,36.667 41.7505296,37.279 C41.7784424,37.425 41.7664798,37.591 41.7804361,37.75 L41.7834268,37.809 L41.7854206,37.838 L41.7854206,37.859 L41.7824299,37.945 L41.7724611,38.283 C41.7694704,38.541 41.738567,38.574 41.7305919,38.732 C41.7246106,38.851 41.6757632,39.041 41.6558255,39.193 C41.4046106,40.477 40.7456698,41.77 39.8205607,42.971 C37.9583801,45.393 35.183053,47.391 32.2402492,49.006 C29.2705296,50.623 26.0525857,51.887 22.7538941,52.818 C19.8978193,53.619 16.96,54.16 14.0600623,54.345 C14.2115888,53.577 14.3750779,52.763 14.5465421,51.896 C15.1287227,49.152 15.6171963,45.966 16.2392523,42.544 C16.5831776,40.591 16.9390654,38.561 17.3009346,36.502 L18.4613084,36.127 C20.211838,35.518 21.9633645,34.846 23.696947,34.076 C25.2082243,33.402 26.6656698,32.672 28.1609969,31.795 C30.1637383,31.727 32.1455452,31.783 34.049595,32.049 C35.6535826,32.278 37.1957632,32.668 38.494704,33.268 C39.7986293,33.876 40.7685981,34.685 41.2700312,35.644 L41.2700312,35.644 Z M19.0823676,26.386 C19.3864174,24.507 19.5509034,22.751 19.7831776,20.999 C20.211838,17.52 20.6105919,14.274 20.9535202,11.491 C21.0801246,10.505 21.1768224,9.587 21.258567,8.733 C23.6680374,8.038 26.2479751,7.665 28.783053,7.598 C30.442866,7.567 32.077757,7.651 33.6588162,7.94 C34.2679128,8.063 35.0036137,8.288 35.5469159,8.549 C36.1071651,8.824 36.5607477,9.156 36.8986916,9.535 C37.5626168,10.277 37.8586916,11.314 37.7590031,12.601 C37.7001869,13.242 37.5646106,13.89 37.3173832,14.566 C36.9983801,15.5 36.7760748,16.045 36.4171963,16.791 C35.7612461,18.207 34.8909657,19.455 33.8552025,20.627 C32.8004984,21.789 31.5573832,22.863 30.209595,23.893 C29.5307165,24.409 28.8309034,24.913 28.1161371,25.413 L27.0803738,26.12 L26.5460436,26.466 C25.4843614,26.523 24.4276636,26.609 23.376947,26.72 C21.8736449,26.888 20.3862928,27.126 18.9039252,27.411 C18.9617445,27.071 19.0225545,26.724 19.0823676,26.386 L19.0823676,26.386 Z" id="Shape" fill="#000000"></path>
                <path d="M66.7145171,41.703 C67.3106542,41.07 67.8629283,40.363 68.3753271,39.598 C69.1329595,40.573 70.0560748,41.33 71.2722741,41.678 C72.7755763,42.108 74.3626168,41.815 76.1091589,40.782 C76.315514,40.661 76.3274766,40.511 76.3872897,40.286 C76.4471028,40.061 76.2138318,39.61 76.2138318,39.61 L74.3835514,36.888 C74.3835514,36.888 74.3396885,36.808 74.0964486,36.71 C73.8532087,36.614 73.7196262,36.702 73.5611215,36.79 C72.9679751,37.116 72.6479751,37.145 72.5672274,37.126 C72.1196262,36.997 71.4517134,35.714 70.8974455,34.532 C73.3168847,27.96 73.5920249,20.028 71.4666667,16.294 C70.1467913,13.972 67.148162,11.603 63.4307788,11.548 C60.8199377,11.507 57.0507165,12.577 53.5965109,17.722 C53.4071028,18.005 53.2127103,18.339 53.2814953,18.556 C53.3492835,18.771 53.6782555,19.003 53.6782555,19.003 L56.2871028,20.603 C56.2871028,20.603 56.6709034,20.884 57.0586916,20.777 C57.3069159,20.707 57.4494704,20.457 57.6458567,20.17 C59.4233022,17.592 61.3722118,16.25 63.3580062,16.283 C65.2062305,16.31 66.7304673,17.525 67.3664798,18.64 C68.2776324,20.242 68.4640498,24.253 67.6954517,28.449 C67.1342056,27.701 66.4902181,27.011 65.729595,26.424 C62.6452336,24.039 58.9617445,23.615 55.6181931,25.256 C51.6346417,27.213 48.7337072,31.82 48.717757,36.209 C48.7067913,39.579 50.4134579,42.368 53.4011215,43.86 C55.3041745,44.811 57.1753271,45.282 58.9647352,45.282 C61.8257944,45.283 64.4775078,44.078 66.7145171,41.703 L66.7145171,41.703 Z M55.5075389,39.623 C54.1119003,38.925 53.4360125,37.815 53.4419938,36.224 C53.4509657,33.626 55.3201246,30.677 57.6976947,29.509 C58.3885358,29.169 59.0773832,28.999 59.7632399,28.999 C60.8059813,28.999 61.8387539,29.392 62.8525857,30.175 C64.0817445,31.126 64.96,32.87 65.7754517,34.661 C65.1015576,36.097 64.2741433,37.399 63.2852336,38.45 C61.0741433,40.797 58.6018692,41.168 55.5075389,39.623 L55.5075389,39.623 Z" id="Shape" fill="#000000"></path>
                <path d="M78.6382555,13.776 C78.9143925,13.801 78.7399377,22.21 78.5365732,26.643 C78.4837383,27.786 78.3182555,35.659 78.2753894,38.864 C78.2634268,39.642 78.3122741,39.777 78.616324,39.961 C78.9203738,40.145 79.5643614,40.119 79.5643614,40.119 L81.7824299,39.965 C81.7824299,39.965 82.5440498,39.885 82.7464174,39.754 C83.0305296,39.568 82.9587539,39.373 82.9507788,39.114 C82.8919626,36.684 82.9587539,33.989 83.0624299,31.239 C83.5329595,27.01 84.7252336,22.46 87.3759502,19.88 C89.02081,18.278 91.1122741,17.546 93.7410592,17.661 C94.1517757,17.679 94.4358879,17.63 94.6651713,17.425 C95.065919,17.068 95.1725857,16.603 95.1725857,16.603 L95.5055452,14.115 C95.5055452,14.115 95.5055452,13.662 95.2952025,13.385 C95.2074766,13.268 94.7090343,12.975 94.2534579,12.947 C90.1742056,12.695 86.7578816,13.883 84.0882243,16.482 C83.90081,16.666 83.7183801,16.853 83.5409346,17.046 C83.4900935,12.026 82.8261682,9.579 80.7376947,8.702 C79.6152025,8.231 78.4328972,8.255 77.3193769,8.766 C74.6407477,10 72.7107788,14.698 72.8603115,14.967 C73.0098442,15.238 77.1419315,16.529 77.3502804,16.43 C77.5596262,16.333 78.3591277,13.749 78.6382555,13.776 L78.6382555,13.776 Z" id="Shape" fill="#000000"></path>
                <path d="M89.8980685,26.69 C88.3658567,27.483 88.0209346,28.815 88.2083489,29.797 C88.6071028,31.887 90.9557632,32.479 93.3054206,32.742 C92.7720872,35.299 92.2776324,37.633 91.8649221,39.561 C91.7732087,39.987 91.7841745,40.325 91.8529595,40.581 C91.9207477,40.835 92.54081,40.983 92.54081,40.983 L95.0200623,41.522 C95.0200623,41.522 95.714891,41.622 95.9661059,41.483 C96.2193146,41.344 96.4605607,40.645 96.5991277,39.999 C97.0666667,37.805 97.6508411,35.031 98.2868536,31.971 C98.6706542,31.817 99.0544548,31.651 99.4402492,31.459 C101.602492,32.18 103.929221,33.449 105.971838,35.594 C108.997383,38.768 111.768723,39.775 114.069533,39.775 C116.24972,39.775 118.00324,38.87 119.143676,38.053 C119.377944,37.885 119.447726,37.739 119.46866,37.52 C119.489595,37.299 119.167601,36.854 119.167601,36.854 L117.369221,34.702 C117.369221,34.702 116.919626,34.19 116.732212,34.192 C116.545794,34.194 116.194891,34.395 115.807103,34.614 C114.576947,35.307 112.519377,35.614 109.382181,32.325 C107.770218,30.632 105.976822,29.329 104.138567,28.348 C108.529844,24.748 112.521371,19.598 114.522118,15.297 C114.609844,15.109 114.670654,15.123 114.574953,14.836 C114.477259,14.549 114.111402,14.449 114.111402,14.449 L110.922368,13.064 C110.922368,13.064 110.706044,12.933 110.441869,13.105 C110.273396,13.214 110.171713,13.46 110.022181,13.765 C107.777196,18.335 103.418816,23.191 99.5419315,25.911 C101.482866,16.489 103.541433,6.249 104.281121,1.993 C104.393769,1.352 104.520374,0.897 104.321994,0.651 C104.165483,0.456 103.408847,0.348 103.408847,0.348 L100.994393,0.02 C100.994393,0.02 100.25271,-0.087 99.9426791,0.163 C99.7193769,0.343 99.7303427,0.608 99.6316511,1.175 C98.9099065,5.321 96.7546417,16.05 94.7329595,25.855 C92.6783801,25.815 90.9597508,26.14 89.8980685,26.69 L89.8980685,26.69 Z" id="Shape" fill="#000000"></path>
                <path d="M125.295452,30.165 C126.463801,30.45 127.659065,29.811 128.071776,28.679 C131.158131,20.218 135.644112,12.206 137.619938,11.574 C138.408474,12.394 137.486355,16.111 136.933084,18.347 C135.985047,22.175 135.003115,26.134 137.051713,28.734 C138.128349,30.095 141.726106,31.064 141.995265,30.785 C142.263427,30.504 142.12785,26.465 141.967352,26.248 C141.806854,26.033 140.732212,26.08 140.575701,25.676 C140.222804,24.754 141.000374,21.557 141.512773,19.49 C142.554517,15.289 143.734829,10.527 140.602617,7.9 C139.422305,6.908 137.965857,6.578 136.504424,6.972 C134.276386,7.572 132.06729,10.103 130.108411,13.224 C130.108411,13.224 131.18704,6.941 130.949782,6.663 C130.711526,6.384 126.578442,5.837 126.267414,6.059 C125.956386,6.281 123.514019,27.563 123.514019,27.563 C123.359502,28.759 124.127103,29.88 125.295452,30.165 L125.295452,30.165 Z" id="Shape" fill="#000000"></path>
                <path d="M100.620561,81.395 C100.530841,81.403 100.441121,81.405 100.350405,81.415 C99.2767601,81.515 98.2061059,81.647 97.1364486,81.808 L97.1364486,81.808 C96.8852336,81.845 96.6360125,81.896 96.3847975,81.937 C95.6351402,82.058 94.8894704,82.191 94.1457944,82.343 C93.7849221,82.415 93.4270405,82.497 93.0671651,82.577 C92.3912773,82.725 91.7193769,82.889 91.0514642,83.063 C90.7334579,83.147 90.4154517,83.227 90.1004361,83.315 C89.1294704,83.588 88.1634891,83.877 87.2094704,84.202 C82.9567601,85.647 78.8994393,87.651 75.1531464,90.102 C71.6829907,92.288 68.5388162,94.928 65.5601246,97.721 C65.28,97.983 65.1214953,98.155 65.0736449,98.51 C65.0267913,98.865 65.3766978,99.342 65.8502181,99.397 C66.3237383,99.454 66.4423676,99.254 66.6915888,99.01 C69.5576324,96.209 72.6908411,93.676 76.0662928,91.539 C79.7308411,89.207 83.7024299,87.387 87.8225545,86.076 C88.7496573,85.781 89.6857321,85.523 90.6267913,85.281 C90.9138941,85.209 91.2019938,85.142 91.4900935,85.072 C92.1759502,84.908 92.8647975,84.76 93.5556386,84.621 C93.8537072,84.562 94.1517757,84.5 94.4498442,84.445 C95.8913396,84.181 97.3438006,83.988 98.8032399,83.832 C99.0783801,83.406 99.3664798,82.994 99.6685358,82.592 C99.9735826,82.178 100.290592,81.779 100.620561,81.395 L100.620561,81.395 Z" id="Shape" fill="#000000"></path>
                <path d="M121.630903,33.341 C121.944922,33.341 122.456324,33.337 122.571963,33.029 C122.685607,32.718 122.151277,29.025 121.982804,28.83 C121.813333,28.635 120.79053,28.375 120.639003,28.199 C118.663178,25.888 119.869408,17.054 121.392648,11.242 C121.472399,10.941 121.556137,10.762 121.43352,10.513 C121.310903,10.263 121.076636,10.204 121.076636,10.204 L118.118879,9.36 C118.118879,9.36 117.46891,9.245 117.192773,9.417 C116.916636,9.589 116.904673,9.741 116.778069,10.229 C115.635639,14.61 113.025794,26.569 117.058193,31.28 C117.894579,32.259 119.338069,33.341 121.630903,33.341 L121.630903,33.341 Z" id="Shape" fill="#000000"></path>
                <path d="M119.169595,7.524 L119.999003,6.671 L120.903178,7.548 L122.54405,5.845 L121.645857,4.976 L122.372586,4.228 L120.682866,2.575 L119.948162,3.329 L119.144673,2.55 L117.504798,4.253 L118.301308,5.026 L117.479875,5.87 L119.169595,7.524 Z" id="Shape" fill="#C92F2B"></path>
                <path d="M29.8178193,84.771 C29.6862305,83.886 29.7560125,82.271 29.9862928,80.38 C30.6013707,77.997 30.7788162,76.001 30.814704,75.528 C30.8655452,74.848 30.5276012,74.223 29.9813084,73.885 C29.3811838,73.5 24.7277259,70.754 19.7064174,74.356 C16.0029907,77.012 15.4736449,83.856 17.634891,87.594 C18.5978816,89.256 20.0373832,90.141 21.6393769,90.141 C22.3242368,90.141 23.04,89.979 23.7597508,89.647 C25.0188162,89.067 26.0545794,88.165 26.9079128,87.09 C26.9956386,87.252 27.0943302,87.401 27.2019938,87.533 C27.7393146,88.189 28.4869782,88.572 29.3223676,88.525 C32.6011215,88.457 34.2639252,84.984 34.7304673,82.943 L31.2792523,82.15 C31.1406854,82.76 30.5894081,84.229 29.8178193,84.771 L29.8178193,84.771 Z M26.4692835,79.797 C25.7236137,82.52 24.4137072,85.438 22.2833645,86.422 C21.734081,86.674 21.2665421,86.793 20.7003115,85.811 C19.3824299,83.536 19.7133956,78.721 21.7679751,77.247 C22.9951402,76.366 24.181433,76.091 25.1882866,76.091 C25.9140187,76.091 26.5440498,76.234 27.0315265,76.398 C26.8221807,77.443 26.6198131,78.611 26.4692835,79.797 L26.4692835,79.797 Z" id="Shape" fill="#7C7A7B"></path>
                <path d="M46.4458567,78.602 C46.3092835,78.588 46.0859813,78.565 45.9494081,78.551 L44.4152025,78.397 C44.2786293,78.383 44.1570093,78.485 44.1450467,78.622 C44.1450467,78.622 43.7114019,83.431 42.0027414,83.974 C41.7046729,84.068 41.3019315,84.013 40.752648,83.675 C40.2213084,83.349 39.8395016,82.339 39.6042368,80.794 C39.4018692,79.476 39.3041745,77.767 39.3121495,75.761 C39.3161371,74.191 39.3839252,72.439 39.5145171,70.552 C39.5434268,70.118 39.5942679,69.476 39.5942679,69.476 C39.6042368,69.339 39.7188785,69.189 39.8474766,69.142 L40.1156386,69.046 C40.2442368,68.999 40.4555763,68.923 40.5841745,68.876 L43.995514,67.64 C44.1241121,67.593 44.1909034,67.449 44.1440498,67.32 L43.1112773,64.451 C43.0644237,64.322 42.9208723,64.254 42.7922741,64.301 L40.847352,65.006 C40.7187539,65.053 40.5064174,65.129 40.3778193,65.176 L40.2302804,65.231 C40.1016822,65.278 40.0079751,65.204 40.0239252,65.067 C40.0239252,65.067 40.0957009,64.456 40.1485358,64.02 C40.4795016,61.321 40.9071651,58.481 41.4295327,55.588 C41.4783801,55.318 41.5322118,55.026 41.5322118,55.026 C41.5561371,54.891 41.4674143,54.76 41.3328349,54.735 L40.8383801,54.641 C40.7038006,54.616 40.484486,54.575 40.3479128,54.549 L39.6939564,54.428 C39.5593769,54.403 39.3400623,54.362 39.204486,54.336 L38.3421807,54.174 C38.2076012,54.149 38.0760125,54.238 38.0520872,54.375 C38.0520872,54.375 37.9922741,54.697 37.8337695,55.639 C37.4679128,57.807 36.3593769,66.397 36.3593769,66.397 C36.341433,66.532 36.2218069,66.682 36.0932087,66.729 L34.1682243,67.426 C34.0396262,67.473 33.8292835,67.549 33.7006854,67.596 L32.6429907,67.979 C32.5143925,68.026 32.4466044,68.17 32.4934579,68.299 L32.691838,68.85 C32.7386916,68.979 32.8144548,69.19 32.8613084,69.319 L33.5272274,71.169 C33.574081,71.298 33.7176324,71.366 33.8462305,71.319 L34.0874766,71.231 C34.2160748,71.184 34.4274143,71.108 34.5560125,71.061 L35.1860436,70.834 C35.3146417,70.785 35.5269782,70.711 35.6555763,70.664 L35.7562617,70.627 C35.8848598,70.58 35.9835514,70.654 35.9735826,70.793 C35.9735826,70.793 35.9616199,70.971 35.9486604,71.18 C35.8011215,73.498 35.7592523,75.465 35.8011215,77.137 C35.8499688,79.104 36.0134579,80.664 36.2566978,81.908 C36.5497819,83.41 36.9595016,84.453 37.4220561,85.199 C37.8846106,85.945 38.4,86.392 38.9094081,86.707 C39.9790654,87.363 40.9271028,87.594 41.7335826,87.594 C42.4812461,87.594 43.105296,87.395 43.5828037,87.156 C44.8119626,86.545 45.682243,85.363 46.2953271,84.068 C47.317134,81.908 47.6680374,78.976 47.6680374,78.976 C47.6839875,78.839 47.5862928,78.718 47.4497196,78.703 L46.4458567,78.602 L46.4458567,78.602 Z" id="Shape" fill="#7C7A7B"></path>
                <path d="M80.5931464,67.203 C81.2879751,62.482 80.1923988,58.574 77.3383178,55.586 C70.9233645,48.871 57.5013084,49.416 54.2235514,49.658 C53.8317757,49.687 53.7091589,49.74 53.6134579,49.869 C53.5167601,49.996 53.5596262,50.166 53.5596262,50.166 L53.9593769,54.018 C53.9593769,54.018 53.9523988,54.223 54.0520872,54.33 C54.1527726,54.435 54.3152648,54.398 54.4887227,54.387 C54.7170093,54.369 54.9652336,54.352 55.2194393,54.338 L57.2311526,80.526 C56.1216199,80.598 55.2294081,80.6 54.6781308,80.588 C54.2883489,80.58 54.2783801,80.635 54.1089097,80.766 C53.9384424,80.899 54.0122118,81.223 54.0122118,81.223 L53.7709657,84.639 C53.7709657,84.639 53.7021807,85.053 53.8247975,85.19 C53.9474143,85.329 54.0929595,85.315 54.2803738,85.323 C54.7359502,85.346 55.2144548,85.358 55.7089097,85.358 C56.3130218,85.358 56.9460436,85.338 57.5990031,85.301 L57.6179439,85.551 C57.6179439,85.551 57.6338941,85.852 57.7076636,85.975 C57.781433,86.098 58.2100935,86.032 58.2100935,86.032 L61.5137695,85.776 C61.5137695,85.776 62.0411215,85.739 62.1637383,85.559 C62.2863551,85.381 62.3172586,85.094 62.3172586,85.094 L62.2863551,84.694 C70.1796885,83.111 78.9433022,78.379 80.5931464,67.203 L80.5931464,67.203 Z M60.0004984,54.387 C64.5253583,53.854 70.745919,55.526 73.9329595,58.867 C75.7482866,60.771 76.3992523,63.269 75.9217445,66.51 C74.992648,72.805 71.1546417,77.078 64.5123988,79.205 C63.6341433,79.484 62.762866,79.707 61.9165109,79.887 C61.4210592,73.43 60.9156386,66.975 60.4311526,60.518 C60.2816199,58.502 59.9995016,56.408 60.0004984,54.387 L60.0004984,54.387 Z" id="Shape" fill="#C92F2B"></path>
                <path d="M119.74081,59.395 C119.54243,59.465 119.480623,59.639 119.400872,59.86 C118.331215,62.819 119.293209,65.942 121.916012,67.803 C123.176075,68.698 124.840872,69.268 126.644237,69.268 C128.827414,69.268 131.213956,68.434 133.329346,66.334 C135.816573,63.865 136.07676,61.525 135.857445,59.996 C135.429782,57.023 133.192773,55.039 130.632773,53.791 C128.843364,52.918 124.512897,52.305 124.22081,49.754 C123.875888,46.734 129.609969,44.408 129.734579,48.385 C129.740561,48.567 129.685732,48.864 129.808349,49.026 C129.915016,49.171 132.141059,49.702 133.648349,50.208 C133.846729,50.274 134.018193,50.354 134.130841,50.27 C134.261433,50.17 134.302305,50.084 134.345171,49.922 C135.137695,46.897 133.891589,43.541 131.041495,42.072 C128.552274,40.789 124.46405,40.886 121.122492,45.381 C119.223427,47.934 119.413832,50.133 119.906293,51.527 C121.091589,54.881 124.48,56.279 127.426791,57.515 C129.274019,58.29 131.311651,59.595 130.640748,61.943 C130.062555,63.963 126.398006,65.187 124.638505,63.937 C124.156012,63.595 123.465171,62.884 123.749283,61.746 C123.79215,61.58 123.859938,61.512 123.770218,61.287 C123.680498,61.062 123.332586,60.933 123.332586,60.933 L120.159502,59.433 C120.164486,59.432 119.938193,59.326 119.74081,59.395 L119.74081,59.395 Z" id="Shape" fill="#C92F2B"></path>
                <path d="M163.394393,56.945 C163.277757,56.424 163.124237,55.914 162.952773,55.408 C162.897944,55.248 162.840125,55.092 162.779315,54.933 C162.646729,54.579 162.501184,54.232 162.342679,53.888 C162.266916,53.722 162.19514,53.556 162.113396,53.392 C161.89109,52.951 161.651838,52.515 161.38866,52.093 C161.272025,51.907 161.141433,51.73 161.016822,51.548 C160.85134,51.306 160.683863,51.064 160.504424,50.831 C160.334953,50.608 160.159502,50.395 159.981059,50.185 C159.829533,50.007 159.673022,49.837 159.51352,49.667 C159.021059,49.136 158.500685,48.634 157.940436,48.177 C157.932461,48.171 157.92648,48.165 157.919502,48.157 C157.983302,48.003 158.056075,47.848 158.117882,47.692 C158.996137,45.528 159.680997,43.323 160.222305,41.096 C161.296947,36.648 162.032648,32.167 162.397508,27.671 C162.792274,23.163 162.954766,18.714 162.767352,14.136 L162.765358,14.081 C162.718505,12.893 161.789408,11.905 160.57919,11.817 C159.280249,11.723 158.148785,12.704 158.056075,14.006 L158.056075,14.01 C157.896573,15.903 157.518754,17.768 156.873769,19.463 C156.550779,20.305 156.166978,21.111 155.705421,21.807 C155.245857,22.498 154.724486,23.11 154.185171,23.495 C153.643863,23.903 153.139439,24.059 152.6719,24.067 C152.202368,24.071 151.665047,23.901 151.076885,23.499 C150.917383,23.405 150.821682,23.306 150.693084,23.218 C150.570467,23.126 150.366106,22.929 150.194642,22.773 C150.190654,22.769 150.186667,22.767 150.184673,22.763 L150.178692,22.757 L150.157757,22.734 L150.112897,22.683 L150.023178,22.585 C149.964361,22.517 149.896573,22.458 149.843738,22.388 C149.74405,22.242 149.619439,22.115 149.53271,21.96 C149.144922,21.37 148.878754,20.689 148.730218,19.935 C148.444112,18.419 148.673396,16.652 149.251589,14.992 C149.827788,13.33 150.777819,11.744 151.931215,10.545 C152.499439,9.955 153.156386,9.471 153.722617,9.205 C154.267913,8.951 155.083364,8.801 155.708411,8.824 C156.339439,8.847 156.793022,9.019 157.201745,9.342 C157.404112,9.508 157.598505,9.719 157.767975,9.973 C157.853707,10.098 157.92947,10.237 157.997259,10.375 C158.059065,10.494 158.195639,10.602 158.38704,10.555 C158.575452,10.51 162.111402,9.641 162.380561,9.367 C162.64972,9.092 162.403489,8.646 162.238006,8.293 C162.076511,7.963 161.895078,7.647 161.688723,7.338 C161.28,6.725 160.769595,6.149 160.164486,5.656 C158.951277,4.652 157.329346,4.123 155.880872,4.092 C154.424424,4.059 153.139439,4.297 151.780685,4.889 C150.456822,5.512 149.441994,6.334 148.55676,7.235 C146.820187,9.049 145.602991,11.147 144.797508,13.424 C144.016947,15.697 143.615202,18.209 144.09271,20.819 C144.339938,22.116 144.833396,23.421 145.596012,24.577 C145.775452,24.87 146.001745,25.134 146.209097,25.411 C146.315763,25.548 146.437383,25.669 146.554019,25.796 L146.72947,25.985 L146.817196,26.079 L146.862056,26.126 L146.964735,26.226 C147.176075,26.414 147.310654,26.554 147.58081,26.781 C147.866916,27.01 148.162991,27.256 148.449097,27.433 C149.576573,28.208 151.0719,28.816 152.695826,28.804 C154.317757,28.804 155.857944,28.163 156.973458,27.316 C157.140935,27.195 157.284486,27.062 157.439003,26.933 C157.431028,27.031 157.425047,27.128 157.416075,27.226 C156.995389,31.533 156.50891,35.833 155.56785,39.993 C155.112274,41.981 154.597882,43.966 153.957882,45.868 L153.957882,45.868 C153.455452,45.673 152.945047,45.499 152.427664,45.356 C152.413707,45.352 152.398754,45.35 152.384798,45.346 C151.888349,45.211 151.387913,45.096 150.881495,45.014 C150.744922,44.991 150.607352,44.983 150.472773,44.963 C150.074019,44.91 149.676262,44.854 149.27352,44.834 C148.713271,44.801 148.146044,44.799 147.577819,44.832 C146.464299,44.891 145.169346,45.074 144.005981,45.508 C142.82866,45.926 141.737072,46.565 140.777072,47.356 C139.815078,48.149 139.018567,49.127 138.40947,50.217 C137.806355,51.307 137.320872,52.483 137.132461,53.801 C136.9281,55.092 137.105545,56.647 138.035639,57.914 C138.932835,59.191 140.476012,59.85 141.743053,60.09 C144.24324,60.537 146.918879,60.19 149.240623,58.985 C151.559377,57.794 153.368723,55.938 154.784299,53.975 C155.1681,53.44 155.52,52.891 155.85296,52.334 C155.879875,52.287 155.905794,52.236 155.93271,52.189 C156.242741,51.666 156.532835,51.132 156.802991,50.595 L156.802991,50.595 C157.505794,51.23 158.134829,51.947 158.692087,52.718 C158.755888,52.81 158.822679,52.898 158.884486,52.991 C159.030031,53.206 159.170592,53.423 159.305171,53.645 C159.441745,53.874 159.568349,54.106 159.690966,54.34 C159.797632,54.545 159.899315,54.754 159.995016,54.963 C160.131589,55.262 160.260187,55.565 160.372835,55.875 C160.419688,56.002 160.466542,56.131 160.509408,56.262 C160.649969,56.68 160.776573,57.104 160.871277,57.537 C161.330841,59.508 161.371713,61.58 160.995888,63.588 C160.920125,64.084 160.775576,64.608 160.664922,65.065 L160.195389,66.655 C159.860436,67.682 159.533458,68.661 159.120748,69.653 C157.535701,73.583 155.210966,77.237 151.803614,79.536 C148.437134,81.893 144.208349,82.788 139.955639,82.987 C135.678006,83.196 131.316636,82.794 126.948287,82.376 C123.725358,82.06 120.487477,81.698 117.227664,81.442 C116.065296,81.35 114.899938,81.27 113.731589,81.213 C113.279003,81.19 112.824424,81.184 112.371838,81.166 L112.371838,81.16 C110.678131,81.088 108.980436,81.047 107.278754,81.06 C106.387539,81.781 105.551153,82.58 104.784548,83.445 C106.363614,83.412 107.946667,83.422 109.53271,83.474 L109.531713,83.476 C110.340187,83.503 111.149657,83.554 111.960125,83.597 C112.501433,83.626 113.042741,83.638 113.58405,83.677 C114.672648,83.755 115.761246,83.845 116.849844,83.941 C120.12162,84.23 123.400374,84.584 126.699065,84.921 C131.096324,85.349 135.543427,85.778 140.081246,85.571 C144.573209,85.37 149.345296,84.426 153.28,81.69 C157.249595,79.012 159.866417,74.856 161.557134,70.641 C161.991776,69.592 162.363614,68.473 162.707539,67.397 L163.173084,65.807 C163.326604,65.192 163.473146,64.647 163.566854,64.051 C163.994517,61.719 163.947664,59.277 163.394393,56.945 L163.394393,56.945 Z M147.476137,55.789 C145.950903,56.762 144.056822,57.156 142.197632,57.018 C141.304424,56.965 140.651464,56.709 140.189907,56.213 C139.733333,55.734 139.487103,54.945 139.537944,54.057 C139.570841,53.174 139.913769,52.239 140.43215,51.436 C140.960498,50.633 141.62243,49.911 142.372087,49.311 C143.115763,48.702 143.957134,48.213 144.860312,47.899 C145.76947,47.571 146.678629,47.434 147.761246,47.376 C148.216822,47.351 148.680374,47.356 149.141931,47.382 C149.486854,47.403 149.830779,47.448 150.175701,47.499 C150.275389,47.513 150.376075,47.52 150.475763,47.536 C151.358006,47.688 152.226293,47.931 153.053707,48.263 L153.055701,48.263 L153.055701,48.263 C152.826417,48.808 152.578193,49.343 152.32,49.867 C152.287103,49.933 152.256199,50.002 152.222305,50.066 C151.946168,50.611 151.656075,51.144 151.336075,51.656 C150.306293,53.352 149.02729,54.832 147.476137,55.789 L147.476137,55.789 Z" id="Shape" fill="#000000"></path>
                <g transform="translate(81.744548, 42.000000)" id="Shape">
                    <path d="M7.15464174,18.559 C6.96224299,18.424 6.74791277,18.239 6.53757009,18.02 C5.18380062,20.549 4.18691589,24.034 5.1588785,26.979 C5.37121495,27.624 5.98031153,29.122 7.04897196,29.122 C8.24523364,29.122 10.3376947,27.415 11.2448598,23.62 C11.5828037,22.206 11.7263551,20.864 11.7482866,19.647 C11.6934579,19.649 11.6376324,19.653 11.5828037,19.653 C9.8223053,19.652 8.26417445,19.332 7.15464174,18.559 L7.15464174,18.559 Z"></path>
                    <path d="M8.49943925,16.611 C9.18629283,17.09 10.291838,17.291 11.6196885,17.281 C11.3634891,15.334 10.7892835,14.027 10.3257321,13.81 C10.0555763,13.845 9.07364486,14.431 7.9152648,15.9 C8.07775701,16.316 8.34990654,16.508 8.49943925,16.611 L8.49943925,16.611 Z"></path>
                    <path d="M27.3545171,7.045 C27.3535202,7.047 27.3525234,7.047 27.3505296,7.047 C26.3257321,7.551 24.7217445,8.762 23.3998754,11.647 C22.9761994,12.573 22.6900935,13.456 22.5016822,14.282 L22.5026791,14.282 C23.169595,13.925 23.7757009,13.548 24.2900935,13.161 C24.605109,12.923 24.8932087,12.677 25.1663551,12.427 C25.2480997,12.353 25.3198754,12.277 25.3976324,12.202 C25.5840498,12.02 25.7614953,11.837 25.9249844,11.649 C25.9957632,11.567 26.0675389,11.485 26.1333333,11.403 C26.2948287,11.206 26.4413707,11.005 26.5759502,10.803 C26.6178193,10.741 26.6656698,10.678 26.7045483,10.614 C26.8730218,10.344 27.0205607,10.071 27.1381931,9.8 C27.4282866,9.12 27.5568847,8.439 27.5040498,7.784 C27.4831153,7.525 27.4312773,7.279 27.3545171,7.045 L27.3545171,7.045 Z"></path>
                    <path d="M58.5191277,27.141 C58.3875389,26.33 58.0027414,25.635 57.5631153,25.202 C56.6469782,24.329 55.9501558,24.345 55.9790654,24.3 L55.4696573,26.193 C55.4487227,26.213 55.8046106,26.244 56.1176324,26.595 C56.4286604,26.9 56.7317134,27.798 56.2372586,29.029 C55.7757009,30.228 54.5874143,31.543 52.8079751,32.254 C51.018567,32.971 48.7446729,33.059 46.2424922,32.42 C43.6505919,31.705 40.4655452,31.102 37.1598754,31.164 C36.8468536,31.166 36.5268536,31.18 36.2088474,31.193 C36.2327726,30.683 36.2596885,30.172 36.2776324,29.675 C36.3922741,26.886 36.3613707,24.335 36.324486,22.077 C36.2796262,19.819 36.1958879,17.854 36.1101558,16.237 C36.030405,14.803 35.9466667,13.657 35.8798754,12.805 C35.9506542,12.061 35.8968224,11.313 35.9546417,10.573 C36.168972,7.928 34.7842991,5.309 34.7842991,5.309 C34.7882866,4.416 35.7183801,4.014 36.3573832,3.842 C36.6694081,3.758 36.7980062,3.801 36.8418692,3.477 C36.8966978,3.084 36.8129595,1.965 36.8129595,1.965 L36.6345171,0.606 C36.6345171,0.606 36.6105919,0.356 36.4471028,0.294 C36.2836137,0.232 35.9566355,0.28 35.5937695,0.372 C34.3975078,0.677 32.9699688,1.354 32.0837383,2.591 C31.1496573,2.07 30.1517757,1.837 29.2097196,1.837 C28.748162,1.837 28.2856075,1.892 27.8350156,1.999 C26.5869159,2.175 22.0520872,3.249 19.1102804,9.669 C18.0854829,11.907 17.5521495,14.187 17.513271,16.28 C17.1035514,16.401 16.6928349,16.512 16.2821184,16.614 C15.9780685,14.37 15.2961994,12.421 14.2664174,11.108 C13.2406231,9.803 11.8579439,9.085 10.3705919,9.085 C7.41084112,9.089 4.94056075,11.913 3.73133956,13.595 C1.21420561,17.099 -1.09956386,23.095 0.674890966,28.466 C1.78841121,31.839 4.16996885,33.855 7.04598131,33.855 C10.9966355,33.855 14.5276012,30.185 15.8325234,24.722 C16.2880997,22.814 16.4894704,20.859 16.4615576,19.011 C16.8862305,18.911 17.3109034,18.796 17.7315888,18.677 C19.3276012,18.224 20.8787539,17.648 22.2514642,17.023 C23.6401246,16.392 24.8433645,15.711 25.7106542,15.056 C26.0346417,14.812 26.3366978,14.558 26.6247975,14.3 C26.7314642,14.204 26.8311526,14.105 26.9348287,14.007 C27.1023053,13.847 27.2657944,13.685 27.4183178,13.521 C27.5399377,13.39 27.6555763,13.259 27.7702181,13.128 C27.8788785,12.999 27.9825545,12.87 28.082243,12.739 C28.2098442,12.579 28.3344548,12.417 28.4461059,12.253 C28.4919626,12.185 28.531838,12.116 28.5757009,12.048 C29.5157632,10.609 29.9793146,9.081 29.8566978,7.591 C29.8317757,7.284 29.7729595,6.986 29.69919,6.696 C30.5724611,7.1 31.1616199,8.592 31.2373832,10.743 C31.394891,15.165 29.0083489,20.044 25.2032399,20.259 C25.1195016,20.263 25.0367601,20.267 24.9550156,20.267 L24.9540187,20.267 C23.9800623,20.267 23.3161371,19.937 22.8625545,19.228 C22.5315888,18.71 22.3092835,17.953 22.2474766,17.027 C20.8747664,17.654 19.3226168,18.228 17.7276012,18.681 C17.9429283,19.827 18.3147664,20.886 18.888972,21.785 C20.2148287,23.859 22.3680997,25.002 24.9540187,25.002 L24.9550156,25.002 C25.1224922,25.002 25.2929595,24.998 25.4684112,24.988 C27.9725857,24.847 30.0690343,23.789 31.7198754,22.181 C31.7079128,24.361 31.6560748,26.814 31.5294704,29.478 C31.4925857,30.253 31.4457321,31.052 31.3909034,31.861 C29.8686604,32.218 28.341433,32.718 26.8550779,33.402 C23.9062928,34.759 21.1040498,36.773 18.8690343,39.398 C18.5400623,39.785 18.223053,40.183 17.9190031,40.595 C17.6189408,40.997 17.3288474,41.409 17.054704,41.835 C16.2372586,43.095 15.5394393,44.456 14.9931464,45.913 C14.2943302,47.866 13.8387539,50.003 14.0919626,52.368 C14.2414953,53.544 14.5764486,54.806 15.3520249,55.972 C16.0917134,57.14 17.3338318,58.113 18.6247975,58.562 C21.249595,59.474 23.6221807,58.902 25.487352,58.312 C26.6586916,57.947 27.7582555,57.308 28.6325234,56.558 C29.5217445,55.81 30.2335202,54.964 30.8306542,54.105 C32.016947,52.376 32.7935202,50.587 33.4046106,48.839 C34.2031153,46.484 34.7175078,44.181 35.0983178,41.948 C34.0077259,41.852 32.9201246,41.764 31.8315265,41.684 C31.2961994,41.643 30.754891,41.629 30.2135826,41.6 C29.854704,43.493 29.4011215,45.389 28.774081,47.221 C27.8031153,50.157 26.1353271,53.067 24.0219315,53.69 C22.5305919,54.221 21.1190031,54.356 20.2706542,54.04 C19.8509657,53.888 19.5788162,53.679 19.3315888,53.313 C19.0803738,52.961 18.9029283,52.415 18.8181931,51.788 C18.6557009,50.507 18.9238629,48.96 19.4302804,47.497 C19.9317134,46.018 20.6743925,44.577 21.5965109,43.268 C22.0431153,42.635 22.5266044,42.028 23.0380062,41.452 C23.8056075,40.585 24.6419938,39.788 25.5332087,39.065 C26.508162,38.278 27.545919,37.583 28.6335202,37.004 C29.4200623,36.58 30.2295327,36.217 31.0499688,35.899 C30.9742056,36.62 30.8864798,37.346 30.788785,38.081 C30.7399377,38.438 30.6801246,38.804 30.625296,39.165 C30.625296,39.167 30.6233022,39.169 30.6233022,39.171 C31.0768847,39.189 31.5324611,39.194 31.9840498,39.218 C33.1523988,39.275 34.3187539,39.355 35.4811215,39.447 C35.5140187,39.199 35.5479128,38.951 35.58081,38.707 C35.7552648,37.312 35.8838629,35.959 35.9875389,34.639 C36.4261682,34.58 36.8638006,34.53 37.2994393,34.498 C38.7638629,34.393 40.2063551,34.412 41.6,34.541 C42.2968224,34.611 42.9846729,34.684 43.6555763,34.799 C43.9915265,34.85 44.324486,34.901 44.6524611,34.971 C45.0053583,35.041 45.3542679,35.11 45.7011838,35.178 C48.5163863,35.754 51.4861059,35.569 53.7799377,34.489 C56.094704,33.423 57.6548287,31.577 58.2539564,29.764 C58.56,28.857 58.663676,27.955 58.5191277,27.141 L58.5191277,27.141 Z M10.3257321,13.811 C10.7892835,14.028 11.3634891,15.334 11.6196885,17.282 C10.291838,17.292 9.18728972,17.091 8.49943925,16.612 C8.34990654,16.508 8.07676012,16.317 7.9152648,15.901 C9.07464174,14.432 10.0555763,13.846 10.3257321,13.811 L10.3257321,13.811 Z M11.2438629,23.619 C10.3366978,27.414 8.24423676,29.121 7.04797508,29.121 C5.98031153,29.121 5.37021807,27.623 5.15788162,26.978 C4.18492212,24.033 5.18180685,20.548 6.53657321,18.019 C6.74691589,18.238 6.96124611,18.423 7.15364486,18.558 C8.26317757,19.331 9.82130841,19.652 11.58081,19.652 C11.6356386,19.652 11.6914642,19.648 11.7462928,19.646 C11.7263551,20.863 11.5818069,22.205 11.2438629,23.619 L11.2438629,23.619 Z M27.13919,9.799 C27.0225545,10.07 26.8740187,10.344 26.7055452,10.613 C26.6666667,10.677 26.6188162,10.74 26.576947,10.802 C26.4413707,11.003 26.2958255,11.204 26.1343302,11.402 C26.0685358,11.484 25.9967601,11.566 25.9259813,11.648 C25.7624922,11.836 25.5840498,12.019 25.3986293,12.201 C25.3208723,12.275 25.2490966,12.351 25.167352,12.426 C24.8952025,12.676 24.6071028,12.922 24.2910903,13.16 C23.7766978,13.547 23.1705919,13.924 22.503676,14.281 C22.503676,14.281 22.503676,14.281 22.5026791,14.281 C22.6910903,13.455 22.9781931,12.572 23.4008723,11.646 C24.7227414,8.761 26.326729,7.55 27.3515265,7.046 C27.3535202,7.046 27.3545171,7.046 27.355514,7.044 C27.4312773,7.278 27.4841121,7.524 27.5050467,7.782 C27.5578816,8.438 27.4292835,9.119 27.13919,9.799 L27.13919,9.799 Z" fill="#C92F2B"></path>
                </g>
            </g>
        </g>
    </g>
</svg>